<svg width="22" height="17" viewBox="0 0 22 17" fill="none" xmlns="http://www.w3.org/2000/svg">
<path d="M20.5 3.25V13.75C20.5 14.3467 20.2629 14.919 19.841 15.341C19.419 15.7629 18.8467 16 18.25 16H3.25C2.65326 16 2.08097 15.7629 1.65901 15.341C1.23705 14.919 1 14.3467 1 13.75V3.25M20.5 3.25C20.5 2.65326 20.2629 2.08097 19.841 1.65901C19.419 1.23705 18.8467 1 18.25 1H3.25C2.65326 1 2.08097 1.23705 1.65901 1.65901C1.23705 2.08097 1 2.65326 1 3.25M20.5 3.25V3.493C20.5 3.87715 20.4017 4.25491 20.2144 4.5903C20.0271 4.92569 19.7571 5.20754 19.43 5.409L11.93 10.024C11.5752 10.2425 11.1667 10.3582 10.75 10.3582C10.3333 10.3582 9.92479 10.2425 9.57 10.024L2.07 5.41C1.74292 5.20854 1.47287 4.92669 1.28557 4.5913C1.09827 4.25591 0.999957 3.87815 1 3.494V3.25" stroke="#06B6D4" stroke-width="1.5" stroke-linecap="round" stroke-linejoin="round"/>
</svg>
