<svg width="14" height="13" viewBox="0 0 14 13" fill="none" xmlns="http://www.w3.org/2000/svg">
<path d="M5.90909 2.09091H13M5.90909 2.09091C5.90909 2.38024 5.79416 2.65771 5.58957 2.8623C5.38499 3.06688 5.10751 3.18182 4.81818 3.18182C4.52885 3.18182 4.25138 3.06688 4.04679 2.8623C3.84221 2.65771 3.72727 2.38024 3.72727 2.09091M5.90909 2.09091C5.90909 1.80158 5.79416 1.5241 5.58957 1.31952C5.38499 1.11493 5.10751 1 4.81818 1C4.52885 1 4.25138 1.11493 4.04679 1.31952C3.84221 1.5241 3.72727 1.80158 3.72727 2.09091M3.72727 2.09091H1M5.90909 10.8182H13M5.90909 10.8182C5.90909 11.1075 5.79416 11.385 5.58957 11.5896C5.38499 11.7942 5.10751 11.9091 4.81818 11.9091C4.52885 11.9091 4.25138 11.7942 4.04679 11.5896C3.84221 11.385 3.72727 11.1075 3.72727 10.8182M5.90909 10.8182C5.90909 10.5289 5.79416 10.2514 5.58957 10.0468C5.38499 9.84221 5.10751 9.72727 4.81818 9.72727C4.52885 9.72727 4.25138 9.84221 4.04679 10.0468C3.84221 10.2514 3.72727 10.5289 3.72727 10.8182M3.72727 10.8182H1M10.2727 6.45455H13M10.2727 6.45455C10.2727 6.74387 10.1578 7.02135 9.95321 7.22593C9.74862 7.43052 9.47115 7.54545 9.18182 7.54545C8.89249 7.54545 8.61501 7.43052 8.41043 7.22593C8.20584 7.02135 8.09091 6.74387 8.09091 6.45455M10.2727 6.45455C10.2727 6.16522 10.1578 5.88774 9.95321 5.68316C9.74862 5.47857 9.47115 5.36364 9.18182 5.36364C8.89249 5.36364 8.61501 5.47857 8.41043 5.68316C8.20584 5.88774 8.09091 6.16522 8.09091 6.45455M8.09091 6.45455H1" stroke="#334155" stroke-width="1.5" stroke-linecap="round" stroke-linejoin="round"/>
</svg>
