<svg width="104" height="29" viewBox="0 0 104 29" fill="none" xmlns="http://www.w3.org/2000/svg">
<path d="M15.5146 3.57V7.525H5.32965V13.79H13.1346V17.675H5.32965V28H0.429649V3.57H15.5146ZM21.4742 6.3C20.6109 6.3 19.8876 6.03167 19.3042 5.495C18.7442 4.935 18.4642 4.24667 18.4642 3.43C18.4642 2.61333 18.7442 1.93666 19.3042 1.4C19.8876 0.839999 20.6109 0.559999 21.4742 0.559999C22.3376 0.559999 23.0492 0.839999 23.6092 1.4C24.1926 1.93666 24.4842 2.61333 24.4842 3.43C24.4842 4.24667 24.1926 4.935 23.6092 5.495C23.0492 6.03167 22.3376 6.3 21.4742 6.3ZM23.8892 8.61V28H18.9892V8.61H23.8892ZM39.4754 8.33C41.7854 8.33 43.6521 9.065 45.0754 10.535C46.4988 11.9817 47.2104 14.0117 47.2104 16.625V28H42.3104V17.29C42.3104 15.75 41.9254 14.5717 41.1554 13.755C40.3854 12.915 39.3354 12.495 38.0054 12.495C36.6521 12.495 35.5788 12.915 34.7854 13.755C34.0154 14.5717 33.6304 15.75 33.6304 17.29V28H28.7304V8.61H33.6304V11.025C34.2838 10.185 35.1121 9.53167 36.1154 9.065C37.1421 8.575 38.2621 8.33 39.4754 8.33ZM50.6101 18.235C50.6101 16.275 50.9951 14.5367 51.7651 13.02C52.5584 11.5033 53.6317 10.3367 54.9851 9.52C56.3384 8.70333 57.8434 8.295 59.5001 8.295C60.7601 8.295 61.9617 8.575 63.1051 9.135C64.2484 9.67167 65.1584 10.395 65.8351 11.305V2.1H70.8051V28H65.8351V25.13C65.2284 26.0867 64.3767 26.8567 63.2801 27.44C62.1834 28.0233 60.9117 28.315 59.4651 28.315C57.8317 28.315 56.3384 27.895 54.9851 27.055C53.6317 26.215 52.5584 25.0367 51.7651 23.52C50.9951 21.98 50.6101 20.2183 50.6101 18.235ZM65.8701 18.305C65.8701 17.115 65.6367 16.1 65.1701 15.26C64.7034 14.3967 64.0734 13.7433 63.2801 13.3C62.4867 12.8333 61.6351 12.6 60.7251 12.6C59.8151 12.6 58.9751 12.8217 58.2051 13.265C57.4351 13.7083 56.8051 14.3617 56.3151 15.225C55.8484 16.065 55.6151 17.0683 55.6151 18.235C55.6151 19.4017 55.8484 20.4283 56.3151 21.315C56.8051 22.1783 57.4351 22.8433 58.2051 23.31C58.9984 23.7767 59.8384 24.01 60.7251 24.01C61.6351 24.01 62.4867 23.7883 63.2801 23.345C64.0734 22.8783 64.7034 22.225 65.1701 21.385C65.6367 20.5217 65.8701 19.495 65.8701 18.305Z" fill="#0F172A"/>
<path d="M81.377 28H77.702C76.9087 28 76.3837 27.8717 76.127 27.615C75.8937 27.3583 75.777 26.8217 75.777 26.005V4.69C75.777 3.87333 75.8937 3.33667 76.127 3.08C76.3837 2.82333 76.9087 2.695 77.702 2.695H81.377V28ZM83.0127 2.695H93.9677C94.341 2.695 94.6444 2.82333 94.8777 3.08C95.111 3.33667 95.2277 3.675 95.2277 4.095V28H91.5527C90.7594 28 90.2344 27.8717 89.9777 27.615C89.7444 27.3583 89.6277 26.8217 89.6277 26.005V7.07H84.0277C83.351 7.07 83.0127 6.51 83.0127 5.39V2.695ZM96.6277 2.695H102.228C102.904 2.695 103.243 3.255 103.243 4.375V7.07H96.6277V2.695Z" fill="#22D3EE"/>
</svg>
