<svg width="739" height="478" viewBox="0 0 739 478" fill="none" xmlns="http://www.w3.org/2000/svg">
<g clip-path="url(#clip0_600_231)">
<path d="M374.372 134.347C367.782 123.731 359.974 112.397 347.746 108.93C333.585 104.916 319.039 112.89 306.7 120.76C269.799 144.294 234.263 169.798 200.254 197.155L200.291 197.567C226.768 195.789 253.245 194.01 279.722 192.232C298.852 190.947 318.639 189.484 335.544 180.669C341.959 177.324 348.213 172.856 355.482 172.545C364.513 172.158 372.388 178.302 378.577 184.721C415.184 222.693 425.777 280.76 466.846 314.121C440.949 251.909 410.027 191.796 374.372 134.347Z" fill="#F2F2F2"/>
<path d="M599.39 456.414C595.342 451.435 593.688 450.269 589.694 445.243C557.181 404.281 526.621 361.936 498.014 318.207C478.583 288.507 460.116 258.238 442.612 227.398C434.279 212.736 426.174 197.96 418.298 183.068C412.186 171.521 406.211 159.905 400.372 148.221C398.702 144.883 397.08 141.53 395.465 138.17C391.661 130.268 387.927 122.327 383.918 114.532C379.35 105.648 373.79 96.3334 365.401 90.3644C361.583 87.5365 357.018 85.8254 352.24 85.4312C345.411 85.0016 339.11 87.7482 333.187 90.7481C289.852 112.76 249.281 140.357 212.585 171.759C175.796 203.232 142.912 238.789 114.604 277.705C113.738 278.909 111.69 277.759 112.564 276.546C116.006 271.805 119.516 267.115 123.095 262.475C167.59 204.831 222.148 155.26 284.275 116.028C294.727 109.43 305.376 103.141 316.221 97.162C321.687 94.1468 327.177 91.17 332.762 88.3773C338.236 85.6383 344.048 83.1755 350.302 83.0835C371.584 82.7613 382.603 106.238 390.172 122.035C392.551 127.007 394.958 131.963 397.394 136.904C406.602 155.663 416.164 174.25 426.08 192.666C432.2 204.036 438.454 215.34 444.841 226.577C464.721 261.57 485.85 295.855 508.23 329.431C537.876 373.907 567.286 413.196 601.06 454.787C601.989 455.938 600.327 457.58 599.39 456.414Z" fill="#E4E4E4"/>
<path d="M210.481 160.166C209.245 158.824 208.016 157.481 206.772 156.138C196.958 145.566 186.428 135.116 172.951 129.055C166.525 126.074 159.511 124.49 152.394 124.414C145.037 124.437 137.846 126.316 131.049 128.948C127.836 130.199 124.693 131.618 121.598 133.129C118.061 134.863 114.588 136.712 111.13 138.577C104.64 142.075 98.2338 145.727 91.912 149.533C79.3334 157.105 67.1487 165.255 55.358 173.984C49.2458 178.511 43.2598 183.186 37.3999 188.009C31.9495 192.489 26.6094 197.09 21.3796 201.811C20.2612 202.816 18.5913 201.19 19.7097 200.185C21.0881 198.934 22.4822 197.691 23.8763 196.464C27.8145 192.996 31.8157 189.594 35.88 186.26C43.2913 180.168 50.8945 174.311 58.6897 168.69C70.8114 159.944 83.3504 151.791 96.3067 144.231C102.781 140.456 109.345 136.84 115.997 133.383C118.006 132.339 120.038 131.319 122.094 130.352C126.758 128.06 131.605 126.138 136.586 124.605C143.643 122.382 151.109 121.667 158.474 122.511C165.586 123.519 172.438 125.828 178.669 129.316C191.901 136.52 202.164 147.661 212.151 158.532C213.16 159.637 211.497 161.271 210.481 160.166Z" fill="#E4E4E4"/>
<path d="M481.602 269.724L513.309 258.427L529.052 252.818C534.179 250.992 539.294 248.912 544.594 247.604C549.2 246.322 554.091 246.383 558.662 247.779C562.738 249.248 566.47 251.502 569.634 254.404C572.867 257.304 575.875 260.433 578.634 263.766C582.061 267.779 585.438 271.833 588.83 275.874C602.83 292.551 616.738 309.301 630.554 326.123C644.371 342.945 658.094 359.838 671.726 376.803C685.39 393.809 698.961 410.887 712.438 428.035C714.089 430.136 715.738 432.238 717.386 434.341C718.297 435.502 720.35 434.357 719.427 433.179C705.851 415.858 692.18 398.608 678.414 381.429C664.615 364.209 650.72 347.061 636.73 329.987C622.741 312.914 608.656 295.914 594.478 278.988C590.945 274.771 587.407 270.559 583.863 266.352C580.873 262.803 577.918 259.215 574.639 255.912C568.62 249.849 561.1 244.49 552.099 244.345C546.807 244.259 541.685 245.895 536.768 247.628C531.467 249.496 526.179 251.399 520.885 253.285L488.956 264.66L480.973 267.504C479.557 268.009 480.169 270.234 481.602 269.724Z" fill="#E4E4E4"/>
<path d="M168.777 142.359C152.664 134.292 132.029 135.872 117.223 145.95C145.465 150.696 173.399 157.047 200.881 164.969C189.469 158.455 180.542 148.248 168.777 142.359Z" fill="#F2F2F2"/>
<path d="M117.065 145.922L113.963 148.378C115.012 147.519 116.103 146.713 117.223 145.95C117.171 145.941 117.118 145.931 117.065 145.922Z" fill="#F2F2F2"/>
<path d="M568.441 269.837C565.32 266.136 561.945 262.261 557.277 260.758L552.918 260.925C586.097 318.035 630.908 367.937 684.601 407.569C645.881 361.658 607.161 315.747 568.441 269.837Z" fill="#F2F2F2"/>
<path d="M297.402 239.307C299.419 246.445 303.963 252.658 310.231 256.847C312.654 258.454 315.52 259.996 316.349 262.735C316.785 264.481 316.517 266.323 315.599 267.882C314.682 269.42 313.567 270.838 312.281 272.101L312.164 272.529C306.151 269.058 300.431 264.668 297.109 258.677C293.788 252.687 293.324 244.836 297.402 239.307Z" fill="#F2F2F2"/>
<path d="M497.588 409.2C499.605 416.338 504.149 422.551 510.416 426.74C512.839 428.347 515.706 429.889 516.535 432.628C516.971 434.374 516.702 436.216 515.784 437.775C514.868 439.313 513.753 440.731 512.467 441.994L512.349 442.422C506.336 438.951 500.616 434.561 497.295 428.57C493.973 422.58 493.51 414.729 497.588 409.2Z" fill="#F2F2F2"/>
<path d="M98.0741 397.483C100.091 404.621 104.635 410.835 110.903 415.023C113.326 416.63 116.192 418.172 117.021 420.911C117.457 422.657 117.189 424.499 116.271 426.058C115.354 427.596 114.239 429.014 112.953 430.277L112.836 430.705C106.823 427.234 101.102 422.844 97.781 416.854C94.4596 410.863 93.9959 403.012 98.0741 397.483Z" fill="#F2F2F2"/>
<path d="M557.816 85.3649C582.016 85.3649 601.633 66.2553 601.633 42.6825C601.633 19.1096 582.016 0 557.816 0C533.616 0 513.998 19.1096 513.998 42.6825C513.998 66.2553 533.616 85.3649 557.816 85.3649Z" fill="#06B6D4"/>
<path d="M636.89 9.93441C615.654 7.13834 591.41 18.3192 585.906 38.4928C584.519 34.9059 581.997 31.8414 578.705 29.742C575.413 27.6427 571.521 26.6171 567.591 26.8136C563.661 27.01 559.897 28.4182 556.843 30.8348C553.789 33.2514 551.602 36.5512 550.6 40.2576L553.031 41.9537C598.539 51.5399 645.647 51.3324 691.064 41.3458C676.293 26.2237 658.126 12.7304 636.89 9.93441Z" fill="#F0F0F0"/>
<path d="M545.818 66.8444C524.582 64.0484 500.338 75.2292 494.834 95.4028C493.447 91.8159 490.925 88.7515 487.633 86.6521C484.341 84.5527 480.448 83.5272 476.519 83.7236C472.589 83.92 468.825 85.3282 465.771 87.7448C462.717 90.1614 460.53 93.4613 459.527 97.1676L461.959 98.8637C507.467 108.45 554.575 108.242 599.992 98.2558C585.22 83.1337 567.054 69.6405 545.818 66.8444Z" fill="#F0F0F0"/>
<path d="M731.164 77.6053C731.076 77.6054 730.988 77.5922 730.905 77.566C503.734 7.58509 303.515 16.7363 175.554 36.7364C158.14 39.4572 140.679 42.5997 123.656 46.0773C119.311 46.964 114.802 47.9145 110.256 48.9043C104.827 50.082 99.4705 51.2949 94.3339 52.5078C92.1155 53.0194 89.9405 53.5351 87.8087 54.0549C84.5797 54.8313 81.3033 55.6404 77.7911 56.5296C73.8665 57.5153 69.879 58.5492 65.9368 59.6027C65.9224 59.6076 65.9076 59.6117 65.8927 59.6149L65.8931 59.6158C61.4404 60.8 57.0111 62.0186 52.7278 63.2356C50.4096 63.8878 48.1711 64.531 46.0269 65.166C45.7874 65.2306 45.5751 65.2927 45.3599 65.3565L44.8992 65.4929C44.6324 65.5722 44.369 65.6499 44.1055 65.7234L44.0887 65.7283L44.0892 65.7292L43.3919 65.9401C42.5604 66.1853 41.7491 66.4247 40.9512 66.6634C19.8629 72.9958 8.26994 77.5007 8.15541 77.5448C8.05068 77.5857 7.93871 77.6061 7.82589 77.6049C7.71307 77.6036 7.60161 77.5807 7.49787 77.5375C7.39413 77.4943 7.30014 77.4316 7.22128 77.353C7.14241 77.2744 7.08022 77.1814 7.03824 77.0794C6.99626 76.9774 6.97533 76.8683 6.97662 76.7584C6.97791 76.6485 7.00142 76.5399 7.04579 76.4389C7.09016 76.3378 7.15452 76.2463 7.23521 76.1695C7.3159 76.0926 7.41134 76.0321 7.51607 75.9912C7.63144 75.947 19.281 71.4192 40.4461 65.0631C41.2469 64.8236 42.0604 64.5842 42.8944 64.3382L43.5421 64.142C43.5643 64.1338 43.5866 64.1273 43.6092 64.1208C43.8714 64.048 44.1332 63.9704 44.3992 63.8919L44.8606 63.7554C45.0905 63.6876 45.3171 63.6206 45.5491 63.5585C47.6785 62.9275 49.9246 62.2827 52.2488 61.628C56.5337 60.4102 60.9672 59.1917 65.4233 58.0058C65.4371 58.0009 65.4514 57.9976 65.4652 57.9935C69.4213 56.9367 73.4235 55.8979 77.3607 54.909C80.8783 54.019 84.161 53.2082 87.3955 52.4302C89.5363 51.9112 91.7156 51.3944 93.9333 50.8797C99.0757 49.6652 104.443 48.4507 109.882 47.2706C114.435 46.28 118.951 45.327 123.304 44.4394C140.353 40.9561 157.841 37.8087 175.281 35.0839C303.426 15.0552 503.932 5.88919 731.422 75.9707C731.618 76.0308 731.785 76.1572 731.893 76.3269C732.002 76.4966 732.044 76.6984 732.013 76.8959C731.982 77.0934 731.879 77.2735 731.723 77.4036C731.567 77.5337 731.369 77.6053 731.164 77.6053Z" fill="#CCCCCC"/>
<path d="M225.952 351.369C225.655 350.521 225.154 349.755 224.492 349.134C224.247 348.913 223.982 348.714 223.701 348.54C221.459 347.084 218.108 346.757 215.977 348.54C215.763 348.721 215.564 348.92 215.384 349.134C214.748 349.896 214.096 350.641 213.425 351.369C212.326 352.591 211.2 353.771 210.023 354.917C209.688 355.235 209.353 355.562 209.009 355.88C208.812 356.072 208.614 356.256 208.416 356.44C207.66 357.143 206.887 357.821 206.105 358.491C205.693 358.851 205.28 359.202 204.859 359.545C204.232 360.056 203.605 360.566 202.969 361.06C202.909 361.102 202.849 361.144 202.789 361.194C202.772 361.202 202.763 361.219 202.746 361.228C202.737 361.228 202.729 361.228 202.72 361.244C202.697 361.253 202.676 361.268 202.66 361.286C202.471 361.412 202.342 361.495 202.248 361.571C202.282 361.554 202.316 361.529 202.351 361.512C202.196 361.629 202.033 361.746 201.878 361.864C200.375 362.943 198.837 363.981 197.264 364.952C193.374 367.377 189.288 369.49 185.047 371.27C184.763 371.379 184.471 371.496 184.179 371.605C173.074 376.037 161.028 377.766 149.082 376.643C147.862 376.551 146.642 376.426 145.422 376.267C144.013 376.066 142.613 375.823 141.221 375.547C135.922 374.517 130.737 372.993 125.738 370.994C119.485 368.205 113.538 364.807 107.988 360.851C107.129 360.257 106.261 359.663 105.393 359.085C106.381 356.725 107.352 354.365 108.297 351.988C108.77 350.841 109.225 349.695 109.672 348.54C113.186 339.644 116.485 330.664 119.647 321.65C122.843 312.519 125.859 303.336 128.694 294.099C128.986 293.162 129.27 292.224 129.545 291.287C131.031 286.408 132.457 281.517 133.823 276.616C133.952 276.139 134.09 275.67 134.21 275.193C134.605 273.787 134.992 272.381 135.37 270.975C136.229 267.803 134.287 264.012 130.868 263.25C129.221 262.839 127.475 263.067 125.998 263.885C124.52 264.703 123.426 266.048 122.946 267.636C122.577 268.992 122.207 270.339 121.829 271.695C120.016 278.248 118.109 284.778 116.107 291.287C115.815 292.224 115.523 293.162 115.231 294.099C110.815 308.276 105.966 322.311 100.685 336.204C100.049 337.886 99.4048 339.563 98.7518 341.234C98.4339 342.054 98.116 342.874 97.7895 343.694C97.1623 345.309 96.518 346.925 95.8736 348.54C95.5041 349.486 95.1261 350.431 94.7481 351.369C94.4989 351.963 94.2584 352.557 94.0178 353.143C91.5681 352.286 89.0301 351.691 86.4485 351.369L86.0361 351.319C84.0346 351.084 82.0104 351.101 80.0133 351.369C77.0243 351.708 74.1484 352.684 71.5889 354.225C69.0294 355.767 66.8488 357.837 65.2012 360.29C61.1029 366.575 61.1545 375.564 66.9023 380.903C72.822 386.402 81.7832 386.36 88.7511 382.92C92.4436 380.974 95.5571 378.132 97.7895 374.668C98.6448 373.413 99.4306 372.114 100.144 370.777C100.324 370.894 100.505 371.011 100.685 371.137C101.372 371.605 102.06 372.082 102.738 372.551C106.693 375.342 110.861 377.835 115.205 380.008C124.546 384.531 134.601 387.493 144.949 388.77C145.181 388.795 145.405 388.829 145.637 388.854C146.779 388.996 147.931 389.105 149.082 389.197C165.597 390.409 182.133 387.117 196.835 379.69C198.081 379.062 199.315 378.404 200.538 377.715C202.437 376.643 204.292 375.505 206.105 374.3C207.093 373.647 208.056 372.986 209.009 372.291C213.177 369.302 217.061 365.954 220.617 362.29C221.966 360.909 223.257 359.484 224.492 358.014C225.659 356.811 226.332 355.232 226.382 353.578C226.375 352.823 226.23 352.074 225.952 351.369ZM83.682 371.304C83.8624 371.178 84.0428 371.045 84.2146 370.911C84.1631 371.036 83.9139 371.178 83.682 371.304ZM86.4399 368.601C86.2423 368.818 86.0618 369.036 85.8642 369.254C85.2631 369.909 84.6172 370.524 83.9311 371.095C83.8366 371.178 83.7335 371.262 83.6304 371.337C83.6293 371.337 83.6281 371.338 83.6271 371.338C83.626 371.338 83.6251 371.339 83.6243 371.34C83.6235 371.341 83.6228 371.342 83.6224 371.343C83.622 371.344 83.6218 371.345 83.6218 371.346C83.4977 371.4 83.3772 371.461 83.2609 371.53C82.8915 371.748 82.5135 371.948 82.1269 372.132C81.3699 372.404 80.5911 372.614 79.7985 372.76C79.1895 372.803 78.5782 372.809 77.9685 372.777H77.9513C77.5305 372.686 77.1147 372.574 76.7055 372.442C76.4993 372.342 76.3017 372.225 76.1041 372.107C76.0267 372.04 75.958 371.973 75.915 371.932C75.8311 371.857 75.7536 371.776 75.6831 371.689C75.6832 371.688 75.6829 371.687 75.6825 371.686C75.6821 371.685 75.6815 371.684 75.6807 371.683C75.6799 371.682 75.6789 371.682 75.6778 371.681C75.6768 371.681 75.6757 371.681 75.6745 371.681C75.58 371.513 75.4769 371.346 75.3824 371.178C75.3775 371.174 75.3744 371.168 75.3738 371.162C75.3051 370.952 75.2449 370.735 75.1934 370.517C75.1748 370.135 75.1776 369.752 75.202 369.371C75.3173 368.836 75.4723 368.31 75.6659 367.797C75.8399 367.434 76.0379 367.081 76.2588 366.743C76.2759 366.709 76.3619 366.575 76.4564 366.425C76.465 366.416 76.465 366.416 76.465 366.408C76.5938 366.266 76.7227 366.115 76.8602 365.981C77.0922 365.73 77.3413 365.513 77.5905 365.287C78.075 364.978 78.577 364.695 79.094 364.441C79.9142 364.157 80.7559 363.936 81.6114 363.78C82.8729 363.682 84.1409 363.694 85.4004 363.814C86.5933 364.015 87.7703 364.298 88.9229 364.659C88.2244 365.979 87.429 367.249 86.543 368.458C86.5086 368.509 86.4743 368.559 86.4399 368.601ZM76.8859 365.847C76.8102 365.966 76.7209 366.075 76.6196 366.174C76.6877 366.05 76.7779 365.94 76.8859 365.847Z" fill="#3F3D56"/>
<path d="M200.126 265.895C200.049 268.523 199.972 271.151 199.894 273.779C199.731 279.612 199.562 285.448 199.387 291.287C199.207 297.857 199.018 304.424 198.82 310.988C198.726 314.377 198.629 317.767 198.528 321.156C198.262 330.287 197.999 339.415 197.738 348.54C197.712 349.486 197.678 350.423 197.652 351.369C197.523 355.896 197.394 360.424 197.265 364.952C197.119 369.864 196.976 374.777 196.836 379.69C196.733 383.372 196.627 387.057 196.518 390.745C195.745 417.468 194.971 444.191 194.198 470.913C194.165 472.568 193.476 474.146 192.275 475.316C191.073 476.487 189.453 477.158 187.754 477.19C186.05 477.177 184.419 476.511 183.213 475.337C182.008 474.162 181.324 472.574 181.311 470.913C181.74 455.882 182.175 440.851 182.616 425.82C183.003 412.229 183.395 398.637 183.794 385.046C183.922 380.569 184.051 376.088 184.18 371.605C184.378 364.86 184.573 358.114 184.764 351.369C184.79 350.423 184.825 349.486 184.85 348.54C184.868 347.711 184.893 346.891 184.919 346.063C185.297 332.965 185.675 319.865 186.053 306.761C186.208 301.606 186.357 296.448 186.5 291.287C186.672 285.403 186.844 279.523 187.015 273.645C187.093 271.059 187.162 268.481 187.239 265.895C187.271 264.24 187.961 262.662 189.162 261.492C190.364 260.322 191.984 259.65 193.683 259.618C195.387 259.632 197.018 260.297 198.224 261.471C199.429 262.646 200.113 264.234 200.126 265.895Z" fill="#3F3D56"/>
<path d="M553.614 267.637C546.857 292.56 538.781 317.125 529.418 341.236C526.835 347.886 524.192 354.523 521.367 361.08L522.016 359.581C520.755 362.704 519.145 365.683 517.214 368.462C517.083 368.641 516.949 368.819 516.813 368.995C517.481 368.163 517.607 367.999 517.193 368.502C516.975 368.754 516.76 369.006 516.534 369.251C515.932 369.907 515.287 370.523 514.602 371.095C514.429 371.239 514.254 371.38 514.076 371.517L514.882 370.907C514.788 371.122 514.132 371.407 513.927 371.529C513.265 371.918 512.575 372.259 511.861 372.549L513.401 371.916C512.231 372.375 511.011 372.701 509.765 372.887L511.478 372.663C510.254 372.828 509.013 372.841 507.786 372.702L509.499 372.926C508.494 372.791 507.511 372.533 506.573 372.158L508.113 372.791C507.612 372.579 507.13 372.328 506.67 372.041C506.437 371.893 505.721 371.364 506.657 372.062C507.631 372.786 506.782 372.124 506.582 371.931C506.415 371.771 506.264 371.596 506.101 371.433C505.343 370.676 506.957 372.736 506.442 371.851C506.167 371.407 505.915 370.95 505.688 370.481L506.337 371.98C506.042 371.267 505.832 370.522 505.712 369.761L505.942 371.43C505.819 370.484 505.818 369.526 505.939 368.58L505.709 370.249C505.867 369.193 506.154 368.159 506.564 367.169L505.914 368.668C506.2 368.003 506.538 367.36 506.926 366.745C507.105 366.427 507.314 366.127 507.552 365.848C507.594 365.861 506.462 367.114 507.063 366.482C507.22 366.316 507.367 366.142 507.526 365.978C507.78 365.715 508.053 365.475 508.321 365.226C509.219 364.394 507.065 366.035 508.101 365.376C508.852 364.895 509.642 364.476 510.463 364.121L508.924 364.754C510.299 364.204 511.742 363.827 513.215 363.633L511.502 363.857C513.348 363.65 515.213 363.672 517.053 363.921L515.34 363.697C517.67 364.041 519.948 364.665 522.121 365.555L520.581 364.922C525.212 366.858 529.313 369.734 533.407 372.553C537.361 375.342 541.528 377.834 545.87 380.007C555.212 384.531 565.267 387.494 575.617 388.772C590.459 390.544 605.521 388.655 619.42 383.281C633.318 377.907 645.609 369.219 655.164 358.014C656.329 356.81 657.001 355.231 657.051 353.576C657.039 351.914 656.362 350.321 655.164 349.138C652.8 347.024 648.334 346.427 646.051 349.138C643.887 351.711 641.561 354.15 639.086 356.441C637.93 357.509 636.744 358.544 635.527 359.546C634.832 360.118 634.127 360.679 633.412 361.229C633.074 361.489 632.022 362.182 633.638 361.064C633.268 361.32 632.912 361.6 632.547 361.863C627.136 365.749 621.272 368.997 615.078 371.542L616.617 370.909C609.971 373.625 602.99 375.488 595.85 376.451L597.563 376.227C590.218 377.168 582.778 377.158 575.436 376.195L577.149 376.42C569.809 375.438 562.631 373.533 555.793 370.753L557.332 371.386C550.734 368.542 544.472 365.009 538.657 360.849C535.63 358.666 532.439 356.709 529.109 354.995C525.23 353.065 521.03 351.822 516.704 351.322C508.595 350.393 500.331 353.469 495.873 360.294C491.77 366.575 491.823 375.563 497.568 380.903C503.486 386.404 512.448 386.357 519.422 382.917C526.138 379.603 530.173 372.719 533.01 366.227C539.394 351.619 545.047 336.673 550.313 321.651C555.524 306.789 560.249 291.776 564.488 276.614C565.013 274.736 565.531 272.856 566.041 270.974C566.901 267.803 564.957 264.011 561.54 263.253C559.893 262.84 558.146 263.066 556.667 263.884C555.188 264.702 554.094 266.048 553.614 267.637Z" fill="#3F3D56"/>
<path d="M617.906 265.895L615.587 346.065L613.279 425.818L611.975 470.913C611.989 472.574 612.673 474.162 613.878 475.336C615.083 476.51 616.714 477.176 618.418 477.19C620.117 477.158 621.737 476.487 622.939 475.316C624.14 474.146 624.829 472.568 624.862 470.913L627.182 390.743L629.489 310.99L630.794 265.895C630.779 264.234 630.095 262.646 628.89 261.472C627.685 260.298 626.054 259.632 624.35 259.618C622.651 259.65 621.031 260.321 619.83 261.492C618.628 262.662 617.939 264.24 617.906 265.895Z" fill="#3F3D56"/>
<path opacity="0.2" d="M394.868 448.53H396.869V359.782H443.547V357.838H396.869V320.391H432.916C432.388 319.737 431.844 319.09 431.285 318.452H396.869V293.719C396.207 293.444 395.54 293.179 394.868 292.929V318.452H355.645V286.762C354.973 286.792 354.312 286.837 353.645 286.892V318.452H322.353V294.809C321.681 295.098 321.02 295.403 320.363 295.723V318.452H294.059V320.391H320.363V357.838H294.059V359.782H320.363V448.53H322.353V359.782C326.463 359.782 330.532 360.569 334.329 362.101C338.126 363.632 341.576 365.878 344.481 368.708C347.387 371.539 349.692 374.899 351.264 378.598C352.837 382.296 353.645 386.26 353.645 390.263V448.53H355.645V359.782H394.868V448.53ZM322.353 357.838V320.391H353.645V357.838H322.353ZM355.645 357.838V320.391H356.43C361.479 320.392 366.477 321.36 371.141 323.243C375.805 325.125 380.042 327.883 383.611 331.36C387.181 334.838 390.012 338.966 391.943 343.509C393.875 348.052 394.869 352.921 394.868 357.838H355.645Z" fill="black"/>
<path d="M382.648 421.92C380.129 432.866 374.095 442.745 365.422 450.124C364.786 450.66 364.15 451.179 363.489 451.689C361.882 451.832 360.287 451.977 358.703 452.124C357.388 452.242 356.091 452.367 354.802 452.484L354.57 452.509L354.407 451.137L353.754 445.58C351.221 441.551 349.651 437.02 349.16 432.32C348.669 427.62 349.27 422.873 350.919 418.43C353.187 412.472 357.294 407.207 361.332 401.985C366.908 394.771 372.329 387.64 372.527 378.844C375.271 382.265 377.552 386.014 379.314 390.001C377.651 390.763 376.157 391.835 374.915 393.156C374.563 393.532 374.211 394.06 374.451 394.511C374.658 394.896 375.173 394.988 375.62 395.039C376.694 395.147 377.777 395.256 378.85 395.365C379.71 395.457 380.569 395.541 381.428 395.633C382.467 398.956 383.172 402.37 383.533 405.826C384.112 411.203 383.813 416.635 382.648 421.92Z" fill="#3F3D56"/>
<path d="M411.172 399.985C406.102 403.575 403.138 408.739 400.836 414.43C398.476 415.166 396.353 416.487 394.675 418.263C394.323 418.64 393.971 419.167 394.212 419.619C394.418 420.004 394.933 420.096 395.38 420.146C396.454 420.255 397.537 420.364 398.61 420.472C396.308 427.201 394.194 434.164 390.122 439.847C387.414 443.599 383.883 446.717 379.786 448.978C378.669 449.598 377.516 450.154 376.332 450.643C371.968 450.969 367.686 451.318 363.488 451.689C361.881 451.832 360.286 451.977 358.702 452.124C357.387 452.242 356.09 452.367 354.801 452.484C354.793 452.024 354.793 451.564 354.801 451.103C355.073 438.842 359.704 427.051 367.904 417.744C368.29 417.309 368.686 416.882 369.089 416.455C373.243 412.133 378.129 408.538 383.532 405.827C392.046 401.514 401.589 399.498 411.172 399.985Z" fill="#06B6D4"/>
<path d="M360.189 447.831L359.201 450.677L358.703 452.124C357.388 452.242 356.091 452.367 354.802 452.484L354.57 452.509C353.144 452.652 351.726 452.794 350.308 452.936C349.939 452.518 349.569 452.091 349.209 451.656C340.241 441.077 335.936 427.471 337.235 413.811C338.534 400.15 345.332 387.546 356.142 378.752C355.008 384.535 356.331 390.076 358.505 395.574C358.273 395.666 358.05 395.758 357.835 395.859C356.172 396.622 354.677 397.693 353.436 399.014C353.084 399.391 352.731 399.918 352.972 400.37C353.178 400.755 353.694 400.847 354.14 400.897C355.214 401.006 356.297 401.115 357.371 401.223C358.23 401.315 359.089 401.399 359.948 401.491C360.352 401.533 360.756 401.575 361.16 401.617C361.22 401.742 361.271 401.86 361.332 401.985C363.78 407.157 366.418 412.354 367.904 417.744C368.277 419.096 368.57 420.468 368.781 421.853C369.442 426.534 369.013 431.3 367.526 435.797C366.039 440.294 363.531 444.407 360.189 447.831Z" fill="#06B6D4"/>
<path d="M446.671 326.446C439.275 312.392 427.816 300.568 414.338 291.879C400.818 283.201 385.304 277.917 369.178 276.496C367.064 276.309 364.945 276.2 362.821 276.167C360.311 276.131 322.555 286.739 309.907 295.401C297.266 303.958 286.868 315.29 279.55 328.482C272.246 341.746 268.653 356.65 269.132 371.695C269.758 386.83 274.089 401.601 281.764 414.775C289.335 427.907 300.083 439.039 313.076 447.202C326.254 455.393 339.492 477.11 355.051 477.876C370.727 478.649 388.605 458.163 402.902 451.943C417.2 445.671 429.56 435.859 438.752 423.484C447.683 411.356 453.461 397.299 455.59 382.519C457.802 367.385 456.771 351.777 451.465 337.312C450.104 333.595 448.503 329.966 446.671 326.446C445.142 323.512 440.66 322.432 437.855 324.194C436.409 325.061 435.362 326.437 434.932 328.037C434.501 329.636 434.72 331.336 435.543 332.782C436.441 334.505 437.276 336.256 438.048 338.036L437.398 336.536C440.319 343.378 442.306 350.564 443.306 357.91L443.076 356.241C444.14 364.21 444.121 372.281 443.019 380.246L443.249 378.577C442.136 386.541 439.953 394.328 436.759 401.738L437.408 400.238C435.765 404.019 433.849 407.683 431.676 411.201C430.575 412.978 429.406 414.714 428.17 416.408C427.628 417.151 427.068 417.881 426.504 418.61C425.769 419.56 427.507 417.368 426.747 418.3C426.617 418.459 426.489 418.619 426.359 418.777C425.969 419.252 425.573 419.723 425.171 420.189C422.493 423.302 419.569 426.208 416.428 428.879C415.646 429.545 414.85 430.195 414.042 430.83C413.639 431.147 413.241 431.477 412.821 431.772C412.837 431.76 414.178 430.768 413.384 431.344C413.134 431.525 412.887 431.709 412.637 431.89C410.97 433.092 409.259 434.234 407.504 435.314C403.463 437.794 399.223 439.953 394.826 441.769L396.366 441.137C388.781 444.247 380.809 446.372 372.655 447.457L374.368 447.232C366.219 448.305 357.959 448.319 349.805 447.275L351.518 447.499C344.108 446.53 336.86 444.621 329.957 441.821L331.497 442.454C327.499 440.809 323.644 438.853 319.97 436.603C318.152 435.487 316.381 434.302 314.657 433.048C314.411 432.869 314.167 432.688 313.923 432.508C313.136 431.93 314.488 432.934 314.498 432.941C314.041 432.622 313.601 432.28 313.18 431.916C312.347 431.256 311.528 430.58 310.721 429.89C307.494 427.121 304.481 424.126 301.706 420.927C301.011 420.127 300.331 419.315 299.666 418.491C299.378 418.134 298.853 417.411 300.013 418.933C299.861 418.733 299.702 418.537 299.548 418.337C299.178 417.859 298.812 417.377 298.452 416.891C297.19 415.191 295.991 413.448 294.854 411.664C292.285 407.625 290.043 403.398 288.148 399.02L288.797 400.519C285.697 393.333 283.576 385.782 282.491 378.059L282.721 379.728C281.741 372.609 281.727 365.395 282.679 358.273L282.449 359.941C283.425 353.044 285.33 346.302 288.115 339.89L287.465 341.389C289.217 337.375 291.284 333.498 293.647 329.793C294.83 327.938 296.084 326.129 297.408 324.366C297.709 323.965 298.014 323.566 298.321 323.171C298.6 322.812 299.365 321.921 298.059 323.496C298.187 323.341 298.31 323.182 298.436 323.027C299.163 322.13 299.908 321.247 300.67 320.378C303.555 317.088 306.68 314.006 310.02 311.154C310.865 310.434 311.722 309.728 312.593 309.038C312.989 308.724 313.387 308.414 313.789 308.106C313.949 307.984 314.111 307.863 314.271 307.739C312.555 309.07 313.794 308.101 314.184 307.817C315.979 306.507 317.822 305.262 319.713 304.083C323.916 301.465 328.338 299.195 332.932 297.298L331.393 297.931C338.06 295.204 367.599 288.767 372.972 289.47L371.259 289.245C379.155 290.319 386.873 292.396 394.216 295.424L392.676 294.791C396.397 296.33 400.013 298.099 403.502 300.088C405.245 301.083 406.954 302.133 408.629 303.237C409.422 303.759 410.206 304.294 410.982 304.84C411.369 305.112 411.755 305.388 412.138 305.667C412.351 305.822 412.563 305.979 412.775 306.134C413.668 306.786 411.545 305.19 412.481 305.911C415.614 308.308 418.589 310.895 421.389 313.655C422.764 315.019 424.092 316.427 425.373 317.878C426.03 318.622 426.673 319.377 427.303 320.143C427.616 320.524 428.682 321.902 427.376 320.214C427.695 320.627 428.018 321.036 428.333 321.452C431.048 325.032 433.459 328.821 435.543 332.782C437.084 335.709 441.546 336.801 444.359 335.034C445.805 334.167 446.852 332.791 447.283 331.191C447.714 329.592 447.494 327.892 446.671 326.446Z" fill="#3F3D56"/>
<path d="M371.589 428.88C370.924 428.91 370.265 428.739 369.703 428.392C369.14 428.046 368.7 427.538 368.444 426.94C368.187 426.342 368.125 425.681 368.266 425.047C368.408 424.413 368.746 423.837 369.235 423.397C369.317 423.08 369.376 422.852 369.458 422.535C369.428 422.466 369.399 422.397 369.369 422.328C366.38 415.384 347.302 434.742 346.477 441.269C346.113 444.154 346.267 447.078 346.93 449.912C340.75 436.781 337.541 422.509 337.52 408.064C337.519 404.44 337.726 400.818 338.14 397.215C338.482 394.262 338.956 391.33 339.563 388.419C342.875 372.624 349.987 357.819 360.313 345.22C366.219 345.542 371.395 344.665 371.895 333.516C371.984 331.533 373.494 329.816 373.826 327.862C373.263 327.934 372.69 327.979 372.126 328.015C371.95 328.024 371.765 328.033 371.59 328.042L371.523 328.045C370.904 328.072 370.289 327.924 369.754 327.619C369.219 327.313 368.785 326.864 368.506 326.325C368.227 325.785 368.114 325.178 368.18 324.578C368.247 323.977 368.49 323.408 368.881 322.939C369.124 322.647 369.368 322.355 369.612 322.064C369.981 321.613 370.36 321.172 370.73 320.722C370.773 320.679 370.813 320.634 370.85 320.587C371.275 320.074 371.701 319.57 372.126 319.056C371.35 317.883 370.306 316.9 369.076 316.184C364.815 313.753 358.936 315.437 355.858 319.192C352.771 322.946 352.189 328.213 353.261 332.904C354.315 336.895 356.059 340.683 358.419 344.104C358.187 344.392 357.947 344.671 357.716 344.959C353.492 350.25 349.81 355.932 346.724 361.922C347.597 355.278 336.92 331.284 332.79 326.202C327.83 320.098 317.659 322.762 316.786 330.5C316.777 330.575 316.769 330.65 316.761 330.725C317.374 331.062 317.974 331.42 318.562 331.798C319.3 332.278 319.872 332.965 320.202 333.767C320.533 334.569 320.607 335.45 320.415 336.294C320.223 337.138 319.774 337.906 319.127 338.497C318.479 339.088 317.663 339.475 316.786 339.607L316.696 339.62C308.486 351.039 334.805 380.758 341.393 374.085C338.292 382.645 336.347 391.561 335.607 400.609C335.188 405.948 335.213 411.31 335.681 416.645L335.653 416.455C334.189 404.837 309.078 387.563 301.745 389.002C297.521 389.831 293.36 389.643 294.001 393.793C294.012 393.859 294.022 393.926 294.032 393.992C295.171 394.444 296.279 394.964 297.351 395.55C297.964 395.887 298.564 396.244 299.152 396.623C299.89 397.103 300.462 397.789 300.792 398.592C301.123 399.394 301.197 400.275 301.005 401.119C300.813 401.963 300.364 402.731 299.716 403.322C299.069 403.913 298.253 404.3 297.376 404.431L297.286 404.445C297.221 404.454 297.166 404.463 297.101 404.472C293.364 416.997 321.078 437.212 337.927 430.78H337.936C339.606 437.848 342.025 444.727 345.155 451.308H370.943C371.035 451.029 371.118 450.741 371.201 450.461C368.814 450.608 366.418 450.469 364.066 450.047C365.979 447.76 367.892 445.456 369.806 443.169C369.848 443.126 369.889 443.081 369.926 443.034C370.896 441.863 371.876 440.702 372.847 439.531L372.847 439.53C372.899 435.942 372.476 432.363 371.59 428.88L371.589 428.88ZM342.059 372.294L342.072 372.276L342.059 372.312V372.294ZM336.346 422.452L336.125 421.966C336.134 421.614 336.134 421.263 336.125 420.903C336.125 420.804 336.106 420.705 336.106 420.606C336.189 421.227 336.263 421.849 336.356 422.47L336.346 422.452Z" fill="#3F3D56"/>
<path d="M81.8356 376.61C87.0552 376.61 91.2865 372.488 91.2865 367.404C91.2865 362.319 87.0552 358.198 81.8356 358.198C76.6161 358.198 72.3848 362.319 72.3848 367.404C72.3848 372.488 76.6161 376.61 81.8356 376.61Z" fill="#3F3D56"/>
<path d="M195.246 477.039C200.465 477.039 204.697 472.918 204.697 467.833C204.697 462.749 200.465 458.627 195.246 458.627C190.026 458.627 185.795 462.749 185.795 467.833C185.795 472.918 190.026 477.039 195.246 477.039Z" fill="#3F3D56"/>
<path d="M625.691 477.039C630.911 477.039 635.142 472.918 635.142 467.833C635.142 462.749 630.911 458.627 625.691 458.627C620.472 458.627 616.24 462.749 616.24 467.833C616.24 472.918 620.472 477.039 625.691 477.039Z" fill="#3F3D56"/>
<path d="M648.888 359.872C654.108 359.872 658.339 355.75 658.339 350.666C658.339 345.581 654.108 341.46 648.888 341.46C643.669 341.46 639.438 345.581 639.438 350.666C639.438 355.75 643.669 359.872 648.888 359.872Z" fill="#3F3D56"/>
<path d="M621.394 274.507C626.614 274.507 630.845 270.385 630.845 265.301C630.845 260.216 626.614 256.095 621.394 256.095C616.175 256.095 611.943 260.216 611.943 265.301C611.943 270.385 616.175 274.507 621.394 274.507Z" fill="#3F3D56"/>
<path d="M227.035 350.666C227.029 353.017 226.096 355.277 224.427 356.976C222.759 358.676 220.484 359.686 218.072 359.797C215.661 359.908 213.298 359.112 211.472 357.573C209.647 356.035 208.498 353.871 208.265 351.531C208.031 349.19 208.73 346.852 210.217 344.999C211.705 343.147 213.866 341.922 216.254 341.579C218.642 341.236 221.075 341.8 223.048 343.155C225.021 344.509 226.384 346.551 226.854 348.858C226.976 349.453 227.036 350.059 227.035 350.666Z" fill="#3F3D56"/>
<path d="M416.052 301.288C421.272 301.288 425.503 297.166 425.503 292.082C425.503 286.998 421.272 282.876 416.052 282.876C410.833 282.876 406.602 286.998 406.602 292.082C406.602 297.166 410.833 301.288 416.052 301.288Z" fill="#3F3D56"/>
<path d="M322.402 292.082C322.396 294.433 321.463 296.693 319.795 298.393C318.126 300.092 315.851 301.102 313.44 301.213C311.028 301.325 308.665 300.528 306.84 298.99C305.014 297.451 303.866 295.288 303.632 292.947C303.398 290.607 304.098 288.268 305.585 286.416C307.072 284.563 309.233 283.339 311.621 282.995C314.01 282.652 316.442 283.216 318.415 284.571C320.388 285.926 321.751 287.968 322.222 290.274C322.343 290.869 322.403 291.475 322.402 292.082Z" fill="#3F3D56"/>
<path d="M200.4 265.301C200.394 267.652 199.461 269.912 197.793 271.611C196.124 273.311 193.849 274.321 191.438 274.432C189.026 274.543 186.663 273.747 184.838 272.209C183.012 270.67 181.864 268.506 181.63 266.166C181.397 263.825 182.096 261.487 183.583 259.635C185.07 257.782 187.231 256.557 189.619 256.214C192.008 255.871 194.44 256.435 196.413 257.79C198.386 259.145 199.749 261.187 200.22 263.493C200.341 264.088 200.401 264.694 200.4 265.301Z" fill="#3F3D56"/>
<path d="M514.857 379.957C520.077 379.957 524.308 375.836 524.308 370.751C524.308 365.667 520.077 361.545 514.857 361.545C509.638 361.545 505.406 365.667 505.406 370.751C505.406 375.836 509.638 379.957 514.857 379.957Z" fill="#3F3D56"/>
<path d="M366.221 296.267C373.813 296.267 379.968 290.271 379.968 282.876C379.968 275.481 373.813 269.485 366.221 269.485C358.629 269.485 352.475 275.481 352.475 282.876C352.475 290.271 358.629 296.267 366.221 296.267Z" fill="#3F3D56"/>
<path d="M737.977 477.743L1.02299 478C0.888651 478 0.75562 477.974 0.631504 477.924C0.507389 477.874 0.394621 477.801 0.299627 477.708C0.204633 477.616 0.12927 477.506 0.0778598 477.385C0.0264493 477.264 0 477.134 0 477.003C0 476.873 0.0264493 476.743 0.0778598 476.622C0.12927 476.501 0.204633 476.391 0.299627 476.299C0.394621 476.206 0.507389 476.133 0.631504 476.083C0.75562 476.033 0.888651 476.007 1.02299 476.007L737.977 475.75C738.248 475.751 738.507 475.856 738.698 476.043C738.89 476.229 738.997 476.482 738.997 476.746C738.997 477.01 738.89 477.263 738.698 477.45C738.507 477.637 738.248 477.742 737.977 477.743Z" fill="#CACACA"/>
</g>
<defs>
<clipPath id="clip0_600_231">
<rect width="739" height="478" fill="white"/>
</clipPath>
</defs>
</svg>
